<?xml version="1.0" encoding="UTF-8" standalone="no"?>
<svg
   xmlns:dc="http://purl.org/dc/elements/1.1/"
   xmlns:cc="http://creativecommons.org/ns#"
   xmlns:rdf="http://www.w3.org/1999/02/22-rdf-syntax-ns#"
   xmlns:svg="http://www.w3.org/2000/svg"
   xmlns="http://www.w3.org/2000/svg"
   xmlns:sodipodi="http://sodipodi.sourceforge.net/DTD/sodipodi-0.dtd"
   xmlns:inkscape="http://www.inkscape.org/namespaces/inkscape"
   version="1.1"
   id="svg853"
   width="64"
   height="64"
   viewBox="0 0 64 64"
   sodipodi:docname="cat-icon.svg"
   inkscape:version="1.0.2-2 (e86c870879, 2021-01-15)">
  <metadata
     id="metadata859">
    <rdf:RDF>
      <cc:Work
         rdf:about="">
        <dc:format>image/svg+xml</dc:format>
        <dc:type
           rdf:resource="http://purl.org/dc/dcmitype/StillImage" />
        <dc:title></dc:title>
      </cc:Work>
    </rdf:RDF>
  </metadata>
  <defs
     id="defs857" />
  <sodipodi:namedview
     pagecolor="#ffffff"
     bordercolor="#666666"
     borderopacity="1"
     objecttolerance="10"
     gridtolerance="10"
     guidetolerance="10"
     inkscape:pageopacity="0"
     inkscape:pageshadow="2"
     inkscape:window-width="1920"
     inkscape:window-height="1027"
     id="namedview855"
     showgrid="false"
     inkscape:zoom="13.4375"
     inkscape:cx="32"
     inkscape:cy="37.953488"
     inkscape:window-x="-8"
     inkscape:window-y="-8"
     inkscape:window-maximized="1"
     inkscape:current-layer="g861" />
  <g
     inkscape:groupmode="layer"
     inkscape:label="Image"
     id="g861">
    <path
       style="fill:none;stroke:#1ba8f0;stroke-width:1px;stroke-linecap:butt;stroke-linejoin:miter;stroke-opacity:1"
       d="m 52.018605,61.916279 c 0,0 7.144186,0.297674 8.558139,-6.995349 C 61.990698,47.627907 49.265116,2.3813953 49.265116,2.3813953 c 0,0 -2.679069,4.7627907 -7.96279,4.8372094 -5.283721,0.074419 -9.897675,-5.0604652 -9.897675,-5.0604652 L 20.465116,50.902326 c 0,0 -2.381395,10.12093 9.302326,11.088372"
       id="path1426" />
    <path
       style="fill:none;stroke:#1ba8f0;stroke-width:1px;stroke-linecap:butt;stroke-linejoin:miter;stroke-opacity:1"
       d="M 29.767442,61.990698 5.3581395,61.916279 c 0,0 -2.9767442,-0.297674 -1.7860465,-5.358139 1.1906977,-5.060466 10.12093,-0.669768 10.12093,-0.669768"
       id="path1428" />
    <path
       style="fill:none;stroke:#1ba8f0;stroke-width:1px;stroke-linecap:butt;stroke-linejoin:miter;stroke-opacity:1"
       d="m 29.693023,36.837209 4.83721,24.186047 c 0,0 0.372093,0.893023 2.902325,1.116279 2.530233,0.223256 3.051163,-2.604651 3.051163,-2.604651 l -0.07442,-17.63721 0.07442,17.711628 c 0,0 0.07442,2.306977 3.348837,2.455814 3.274419,0.148837 2.604651,-2.976744 2.604651,-2.976744 l 4.465117,-22.027907"
       id="path1430" />
    <ellipse
       style="fill:#1ba8f0;stroke:#1ba8f0;stroke-width:1.00157;stroke-linecap:round;stroke-linejoin:round;stroke-opacity:1;fill-opacity:1"
       id="path1432"
       cx="45.544186"
       cy="17.11628"
       rx="0.89302325"
       ry="0.81860465" />
    <ellipse
       style="fill:#1ba8f0;fill-opacity:1;stroke:#1ba8f0;stroke-width:1.00157;stroke-linecap:round;stroke-linejoin:round;stroke-opacity:1"
       id="ellipse1434"
       cx="35.423256"
       cy="-16.893024"
       rx="0.89302325"
       ry="0.81860465"
       transform="scale(1,-1)" />
  </g>
</svg>
