<?xml version="1.0" encoding="UTF-8" standalone="no"?>
<svg
   xmlns:dc="http://purl.org/dc/elements/1.1/"
   xmlns:cc="http://creativecommons.org/ns#"
   xmlns:rdf="http://www.w3.org/1999/02/22-rdf-syntax-ns#"
   xmlns:svg="http://www.w3.org/2000/svg"
   xmlns="http://www.w3.org/2000/svg"
   xmlns:sodipodi="http://sodipodi.sourceforge.net/DTD/sodipodi-0.dtd"
   xmlns:inkscape="http://www.inkscape.org/namespaces/inkscape"
   data-name="Your Icons"
   id="Your_Icons"
   viewBox="0 0 48 48"
   version="1.1"
   sodipodi:docname="descuento.svg"
   inkscape:version="1.0.2-2 (e86c870879, 2021-01-15)">
  <metadata
     id="metadata979">
    <rdf:RDF>
      <cc:Work
         rdf:about="">
        <dc:format>image/svg+xml</dc:format>
        <dc:type
           rdf:resource="http://purl.org/dc/dcmitype/StillImage" />
      </cc:Work>
    </rdf:RDF>
  </metadata>
  <sodipodi:namedview
     pagecolor="#ffffff"
     bordercolor="#666666"
     borderopacity="1"
     objecttolerance="10"
     gridtolerance="10"
     guidetolerance="10"
     inkscape:pageopacity="0"
     inkscape:pageshadow="2"
     inkscape:window-width="1920"
     inkscape:window-height="1027"
     id="namedview977"
     showgrid="false"
     inkscape:zoom="17.916667"
     inkscape:cx="13.255814"
     inkscape:cy="24"
     inkscape:window-x="-8"
     inkscape:window-y="-8"
     inkscape:window-maximized="1"
     inkscape:current-layer="Your_Icons" />
  <defs
     id="defs962">
    <style
       id="style960">.cls-1{fill:#939598;}</style>
  </defs>
  <title
     id="title964" />
  <circle
     class="cls-1"
     cx="24"
     cy="14"
     r="1.5"
     id="circle966"
     style="fill:#1ba8f0;fill-opacity:1" />
  <path
     class="cls-1"
     d="M26.77,10a4,4,0,0,0-5.65,0l-8,7.91A4,4,0,0,0,12,20.7V36.87a4,4,0,0,0,4,4H32a4,4,0,0,0,4-4V20.71a3.91,3.91,0,0,0-1.18-2.81ZM34,36.87a2,2,0,0,1-2,2H16a2,2,0,0,1-2-2V20.7a1.94,1.94,0,0,1,.57-1.38l8-7.91A2,2,0,0,1,24,10.83a2,2,0,0,1,1.42.58l8.05,7.92A2,2,0,0,1,34,20.71Z"
     id="path968"
     style="fill:#1ba8f0;fill-opacity:1" />
  <path
     class="cls-1"
     d="M28.79,22.29l-10.5,10.5a1,1,0,0,0,0,1.42,1,1,0,0,0,1.42,0l10.5-10.5a1,1,0,0,0-1.42-1.42Z"
     id="path970"
     style="fill:#1ba8f0;fill-opacity:1" />
  <path
     class="cls-1"
     d="M20.5,28a3,3,0,1,0-3-3A3,3,0,0,0,20.5,28Zm0-4a1,1,0,1,1-1,1A1,1,0,0,1,20.5,24Z"
     id="path972"
     style="fill:#1ba8f0;fill-opacity:1" />
  <path
     class="cls-1"
     d="M27.5,29a3,3,0,1,0,3,3A3,3,0,0,0,27.5,29Zm0,4a1,1,0,1,1,1-1A1,1,0,0,1,27.5,33Z"
     id="path974"
     style="fill:#1ba8f0;fill-opacity:1" />
</svg>
