<?xml version="1.0" encoding="UTF-8" standalone="no"?>
<svg
   xmlns:dc="http://purl.org/dc/elements/1.1/"
   xmlns:cc="http://creativecommons.org/ns#"
   xmlns:rdf="http://www.w3.org/1999/02/22-rdf-syntax-ns#"
   xmlns:svg="http://www.w3.org/2000/svg"
   xmlns="http://www.w3.org/2000/svg"
   xmlns:sodipodi="http://sodipodi.sourceforge.net/DTD/sodipodi-0.dtd"
   xmlns:inkscape="http://www.inkscape.org/namespaces/inkscape"
   version="1.1"
   id="Capa_1"
   x="0px"
   y="0px"
   width="751.012px"
   height="751.012px"
   viewBox="0 0 751.012 751.012"
   style="enable-background:new 0 0 751.012 751.012;"
   xml:space="preserve"
   sodipodi:docname="direccion.svg"
   inkscape:version="1.0.2-2 (e86c870879, 2021-01-15)"><metadata
   id="metadata96"><rdf:RDF><cc:Work
       rdf:about=""><dc:format>image/svg+xml</dc:format><dc:type
         rdf:resource="http://purl.org/dc/dcmitype/StillImage" /></cc:Work></rdf:RDF></metadata><defs
   id="defs94" /><sodipodi:namedview
   pagecolor="#ffffff"
   bordercolor="#666666"
   borderopacity="1"
   objecttolerance="10"
   gridtolerance="10"
   guidetolerance="10"
   inkscape:pageopacity="0"
   inkscape:pageshadow="2"
   inkscape:window-width="1920"
   inkscape:window-height="1027"
   id="namedview92"
   showgrid="false"
   inkscape:zoom="1.1331377"
   inkscape:cx="461.05841"
   inkscape:cy="375.50601"
   inkscape:window-x="-8"
   inkscape:window-y="-8"
   inkscape:window-maximized="1"
   inkscape:current-layer="Capa_1" />
<g
   id="g59"
   style="fill:#1ba8f0;fill-opacity:1">
	<g
   id="Shape_391"
   style="fill:#1ba8f0;fill-opacity:1">
		<g
   id="g56"
   style="fill:#1ba8f0;fill-opacity:1">
			<path
   d="M620.282,233.435C620.003,104.472,515.101,0,385.706,0c-129.569,0-234.6,104.168-234.6,232.642     c0,10.247,0.816,20.295,2.11,30.181l-83.71,41.663v446.527l204-101.487l204,101.487l204-101.487V202.998L620.282,233.435z      M263.306,634.312l-173.4,86.286V314.626l66.527-33.106c6.598,30.542,19.118,58.927,36.499,83.733h-0.023l70.386,96.44v172.618     H263.306z M467.306,725.657l-183.6-91.334V489.635l102,139.734l81.6-110.918V725.657z M385.706,594.992l-174.298-238.89     c-25.109-34.796-39.902-77.415-39.902-123.473c0-117.306,95.903-212.405,214.2-212.405v0.105     c118.297,0,214.2,95.659,214.2,213.605c0,46.302-14.793,89.142-39.902,124.16L385.706,594.992z M661.105,639.395l-173.399,86.263     V490.742l90.786-123.425l-0.023-0.023c22.766-32.652,37.338-71.389,40.916-113.238l41.709-20.621v405.96H661.105z      M385.706,111.629c-67.6,0-122.4,54.532-122.4,121.806c0,67.262,54.8,121.782,122.4,121.782     c67.6,0,122.399-54.521,122.399-121.782S453.306,111.629,385.706,111.629z M385.706,335.084     c-56.433,0-102.175-45.533-102.175-101.65c0-56.141,45.742-101.65,102.175-101.65c56.432,0,102.175,45.509,102.175,101.65     C487.869,289.552,442.126,335.084,385.706,335.084z"
   id="path54"
   style="fill:#1ba8f0;fill-opacity:1" />
		</g>
	</g>
</g>
<g
   id="g61">
</g>
<g
   id="g63">
</g>
<g
   id="g65">
</g>
<g
   id="g67">
</g>
<g
   id="g69">
</g>
<g
   id="g71">
</g>
<g
   id="g73">
</g>
<g
   id="g75">
</g>
<g
   id="g77">
</g>
<g
   id="g79">
</g>
<g
   id="g81">
</g>
<g
   id="g83">
</g>
<g
   id="g85">
</g>
<g
   id="g87">
</g>
<g
   id="g89">
</g>
</svg>
