<?xml version="1.0" encoding="UTF-8" standalone="no"?>
<svg
   xmlns:dc="http://purl.org/dc/elements/1.1/"
   xmlns:cc="http://creativecommons.org/ns#"
   xmlns:rdf="http://www.w3.org/1999/02/22-rdf-syntax-ns#"
   xmlns:svg="http://www.w3.org/2000/svg"
   xmlns="http://www.w3.org/2000/svg"
   xmlns:sodipodi="http://sodipodi.sourceforge.net/DTD/sodipodi-0.dtd"
   xmlns:inkscape="http://www.inkscape.org/namespaces/inkscape"
   version="1.1"
   id="svg833"
   width="64"
   height="64"
   viewBox="0 0 64 64"
   sodipodi:docname="dog-icon.svg"
   inkscape:version="1.0.2-2 (e86c870879, 2021-01-15)">
  <metadata
     id="metadata839">
    <rdf:RDF>
      <cc:Work
         rdf:about="">
        <dc:format>image/svg+xml</dc:format>
        <dc:type
           rdf:resource="http://purl.org/dc/dcmitype/StillImage" />
        <dc:title></dc:title>
      </cc:Work>
    </rdf:RDF>
  </metadata>
  <defs
     id="defs837" />
  <sodipodi:namedview
     pagecolor="#ffffff"
     bordercolor="#666666"
     borderopacity="1"
     objecttolerance="10"
     gridtolerance="10"
     guidetolerance="10"
     inkscape:pageopacity="0"
     inkscape:pageshadow="2"
     inkscape:window-width="1920"
     inkscape:window-height="1027"
     id="namedview835"
     showgrid="false"
     inkscape:zoom="13.744388"
     inkscape:cx="22.797173"
     inkscape:cy="25.796956"
     inkscape:window-x="-8"
     inkscape:window-y="-8"
     inkscape:window-maximized="1"
     inkscape:current-layer="g841" />
  <g
     inkscape:groupmode="layer"
     inkscape:label="Image"
     id="g841">
    <path
       style="fill:none;stroke:#1ba8f0;stroke-width:1.00157;stroke-linecap:round;stroke-linejoin:round;stroke-miterlimit:4;stroke-dasharray:none;stroke-opacity:1"
       d="m 30.126685,62.023487 -8.736136,-0.03455 c 0,0 -1.792682,-7.070093 3.414407,-6.427579 4.312456,0.532123 5.75297,-32.71567 5.75297,-32.71567 0,0 -9.167377,-6.839155 -11.059059,-12.659713 -1.891681,-5.8205569 3.201307,-7.857752 3.201307,-7.857752 l 6.257099,4.510932 c 0,0 9.167378,-0.8730836 13.823824,4.219904 4.656446,5.092988 3.928876,20.662979 3.928876,20.662979 0,0 -5.844077,12.165097 -7.787137,3.101441 -2.003142,-9.343915 -1.089213,-16.925265 -1.089213,-16.925265"
       id="path845"
       sodipodi:nodetypes="ccscsccscsc" />
    <path
       style="fill:none;stroke:#1ba8f0;stroke-width:1.0015748;stroke-linecap:round;stroke-linejoin:round;stroke-opacity:1;stroke-miterlimit:4;stroke-dasharray:none"
       d="m 45.684887,40.643087 6.173634,8.025723 c 0,0 3.498392,12.038585 -2.057878,13.067524 -5.55627,1.028939 -16.977492,0.308682 -16.977492,0.308682 0,0 -1.749196,-5.967846 3.395499,-6.070739 5.144694,-0.102894 6.070739,0.411575 6.070739,0.411575"
       id="path847" />
    <path
       style="fill:none;stroke:#1ba8f0;stroke-width:1px;stroke-linecap:butt;stroke-linejoin:miter;stroke-opacity:1"
       d="M 39.202572,55.665595 37.967846,52.475884"
       id="path849" />
    <path
       style="fill:none;stroke:#1ba8f0;stroke-width:1.0015748;stroke-linecap:round;stroke-linejoin:round;stroke-opacity:1;stroke-miterlimit:4;stroke-dasharray:none"
       d="m 58.135048,52.784566 c 0,0 4.424437,8.231511 -3.498392,8.745981 -7.372798,0.478754 -4.385852,0.128616 -4.385852,0.128616"
       id="path851"
       sodipodi:nodetypes="csc" />
  </g>
</svg>
