<?xml version="1.0" encoding="UTF-8" standalone="no"?>
<svg
   xmlns:dc="http://purl.org/dc/elements/1.1/"
   xmlns:cc="http://creativecommons.org/ns#"
   xmlns:rdf="http://www.w3.org/1999/02/22-rdf-syntax-ns#"
   xmlns:svg="http://www.w3.org/2000/svg"
   xmlns="http://www.w3.org/2000/svg"
   xmlns:sodipodi="http://sodipodi.sourceforge.net/DTD/sodipodi-0.dtd"
   xmlns:inkscape="http://www.inkscape.org/namespaces/inkscape"
   data-name="Your Icons"
   id="Your_Icons"
   viewBox="0 0 48 48"
   version="1.1"
   sodipodi:docname="envio.svg"
   inkscape:version="1.0.2-2 (e86c870879, 2021-01-15)">
  <metadata
     id="metadata1574">
    <rdf:RDF>
      <cc:Work
         rdf:about="">
        <dc:format>image/svg+xml</dc:format>
        <dc:type
           rdf:resource="http://purl.org/dc/dcmitype/StillImage" />
      </cc:Work>
    </rdf:RDF>
  </metadata>
  <sodipodi:namedview
     pagecolor="#ffffff"
     bordercolor="#666666"
     borderopacity="1"
     objecttolerance="10"
     gridtolerance="10"
     guidetolerance="10"
     inkscape:pageopacity="0"
     inkscape:pageshadow="2"
     inkscape:window-width="1920"
     inkscape:window-height="1027"
     id="namedview1572"
     showgrid="false"
     inkscape:zoom="17.916667"
     inkscape:cx="13.255814"
     inkscape:cy="24"
     inkscape:window-x="-8"
     inkscape:window-y="-8"
     inkscape:window-maximized="1"
     inkscape:current-layer="Your_Icons" />
  <defs
     id="defs1561">
    <style
       id="style1559">.cls-1{fill:#939598;}.cls-2{fill:#8dc63f;}.cls-3{fill:#fff;}</style>
  </defs>
  <title
     id="title1563" />
  <path
     class="cls-1"
     d="M43.52,26.17,41.21,22l-1.12-2a3.82,3.82,0,0,0-3.34-2H29.19A5.77,5.77,0,0,1,28,19.46a5.92,5.92,0,0,1-.91.67l-.21.11a5.85,5.85,0,0,1-.84.39A6,6,0,0,1,24,21a6,6,0,0,1-6-6,6.53,6.53,0,0,1,.08-1H8a4,4,0,0,0-4,4V33a4,4,0,0,0,4,4H8.1a5,5,0,0,0,9.8,0H30.1a5,5,0,0,0,9.8,0h.28A3.82,3.82,0,0,0,44,33.18V28A3.73,3.73,0,0,0,43.52,26.17ZM40,24l1.1,2,.56,1H35a1,1,0,0,1-1-1V25a1,1,0,0,1,1-1ZM13,39a3,3,0,0,1-2.94-2.45A2.51,2.51,0,0,1,10,36a3,3,0,0,1,6,0,2.51,2.51,0,0,1-.06.55A3,3,0,0,1,13,39Zm4.9-4h0l0-.09a5.16,5.16,0,0,0-.24-.79l-.16-.32a3.67,3.67,0,0,0-.26-.48L17,33a3.79,3.79,0,0,0-.32-.38,2.65,2.65,0,0,0-.29-.29L16,32a4,4,0,0,0-.34-.23l-.46-.25-.35-.16a4.75,4.75,0,0,0-.57-.18L14,31.1a4.56,4.56,0,0,0-1.9,0l-.31.08a4.75,4.75,0,0,0-.57.18l-.35.16-.46.25A4,4,0,0,0,10,32l-.38.32a2.65,2.65,0,0,0-.29.29A3.79,3.79,0,0,0,9,33l-.24.33a3.67,3.67,0,0,0-.26.48c0,.11-.11.21-.16.32a5.16,5.16,0,0,0-.24.79l0,.09H8a2,2,0,0,1-2-2V18a2,2,0,0,1,2-2h8.09a7.87,7.87,0,0,0,2.35,4.72A8,8,0,0,0,24,23a8.36,8.36,0,0,0,2-.25V27H11a1,1,0,0,0,0,2H26v6ZM35,39a3,3,0,0,1-2.94-2.45A2.51,2.51,0,0,1,32,36a3,3,0,0,1,6,0,2.51,2.51,0,0,1-.06.55A3,3,0,0,1,35,39Zm7-5.82A1.83,1.83,0,0,1,40.18,35H39.9l0-.09a5.16,5.16,0,0,0-.24-.79l-.16-.32a3.67,3.67,0,0,0-.26-.48L39,33a3.79,3.79,0,0,0-.32-.38,2.65,2.65,0,0,0-.29-.29L38,32a4,4,0,0,0-.34-.23l-.46-.25-.35-.16a4.75,4.75,0,0,0-.57-.18L36,31.1a4.56,4.56,0,0,0-1.9,0l-.31.08a4.75,4.75,0,0,0-.57.18l-.35.16-.46.25A4,4,0,0,0,32,32l-.38.32a2.65,2.65,0,0,0-.29.29A3.79,3.79,0,0,0,31,33l-.24.33a3.67,3.67,0,0,0-.26.48l-.16.32a5.16,5.16,0,0,0-.24.79l0,.09H28V21.92a7.8,7.8,0,0,0,1.33-1,7.39,7.39,0,0,0,.91-.95h6.51a1.82,1.82,0,0,1,1.59.94L38.93,22H35a3,3,0,0,0-3,3v1a3,3,0,0,0,3,3h7Z"
     id="path1565"
     style="fill:#1ba8f0;fill-opacity:1" />
  <path
     class="cls-2"
     d="M24,7a8,8,0,1,0,8,8A8,8,0,0,0,24,7Z"
     id="path1567" />
  <path
     class="cls-3"
     d="M23.38,18.06a1,1,0,0,1-.69-.28L20.81,16a1,1,0,1,1,1.39-1.44l1.18,1.13,2.43-2.33a1,1,0,0,1,1.42,0,1,1,0,0,1,0,1.41l-3.13,3A1,1,0,0,1,23.38,18.06Z"
     id="path1569" />
</svg>
