<?xml version="1.0" ?><!DOCTYPE svg  PUBLIC '-//W3C//DTD SVG 1.1//EN'  'http://www.w3.org/Graphics/SVG/1.1/DTD/svg11.dtd'><svg enable-background="new 0 0 128 128" id="Слой_1" version="1.1" viewBox="0 0 128 128" xml:space="preserve" xmlns="http://www.w3.org/2000/svg" xmlns:xlink="http://www.w3.org/1999/xlink"><g><path d="M64,113.5c27.3,0,49.5-22.2,49.5-49.5S91.3,14.5,64,14.5S14.5,36.7,14.5,64S36.7,113.5,64,113.5z M64,18.5   c25.1,0,45.5,20.4,45.5,45.5S89.1,109.5,64,109.5S18.5,89.1,18.5,64S38.9,18.5,64,18.5z" fill="#3EBBC4"/><path d="M108.4,116.4v-14.8L105,105c-17.9,17.9-45,22.1-67.5,10.6l-1.8,3.6c9,4.6,18.7,6.9,28.3,6.9   c14.6,0,28.9-5.2,40.4-15v5.4H108.4z" fill="#3EBBC4"/><path d="M11.6,104.4v4h14.8L23,105C5.2,87.3,0.9,60.3,12.2,37.9l-3.6-1.8C-2.7,58.6,0.7,85.5,17,104.4H11.6z" fill="#3EBBC4"/><path d="M115.7,90.3l3.6,1.8c11.5-22.6,8.1-49.6-8.3-68.6h10.4v-4h-19.8L105,23C122.8,40.8,127.1,67.9,115.7,90.3z" fill="#3EBBC4"/><path d="M90.3,12.3l1.8-3.6C69.5-2.8,42.5,0.6,23.6,17v-5.4h-4v14.8L23,23C40.8,5.2,67.9,0.9,90.3,12.3z" fill="#3EBBC4"/><rect fill="#3EBBC4" height="3.2" width="4" x="62" y="24.4"/><rect fill="#3EBBC4" height="4" width="3.2" x="100.4" y="62"/><rect fill="#3EBBC4" height="3.2" width="4" x="62" y="100.4"/><rect fill="#3EBBC4" height="4" width="3.2" x="24.4" y="62"/><polygon fill="#3EBBC4" points="62,71.9 66,71.9 66,66 84.6,66 84.6,62 66,62 66,33.5 62,33.5 62,62 56.1,62 56.1,66 62,66  "/></g></svg>