<?xml version="1.0" encoding="UTF-8" standalone="no"?>
<svg
   xmlns:dc="http://purl.org/dc/elements/1.1/"
   xmlns:cc="http://creativecommons.org/ns#"
   xmlns:rdf="http://www.w3.org/1999/02/22-rdf-syntax-ns#"
   xmlns:svg="http://www.w3.org/2000/svg"
   xmlns="http://www.w3.org/2000/svg"
   xmlns:sodipodi="http://sodipodi.sourceforge.net/DTD/sodipodi-0.dtd"
   xmlns:inkscape="http://www.inkscape.org/namespaces/inkscape"
   version="1.1"
   id="svg833"
   width="50"
   height="50"
   viewBox="0 0 50 50"
   sodipodi:docname="rat-icon.svg"
   inkscape:version="1.0.2-2 (e86c870879, 2021-01-15)">
  <metadata
     id="metadata839">
    <rdf:RDF>
      <cc:Work
         rdf:about="">
        <dc:format>image/svg+xml</dc:format>
        <dc:type
           rdf:resource="http://purl.org/dc/dcmitype/StillImage" />
        <dc:title></dc:title>
      </cc:Work>
    </rdf:RDF>
  </metadata>
  <defs
     id="defs837" />
  <sodipodi:namedview
     pagecolor="#ffffff"
     bordercolor="#666666"
     borderopacity="1"
     objecttolerance="10"
     gridtolerance="10"
     guidetolerance="10"
     inkscape:pageopacity="0"
     inkscape:pageshadow="2"
     inkscape:window-width="1920"
     inkscape:window-height="1027"
     id="namedview835"
     showgrid="false"
     inkscape:zoom="6.22"
     inkscape:cx="26.360359"
     inkscape:cy="35.743632"
     inkscape:window-x="-8"
     inkscape:window-y="-8"
     inkscape:window-maximized="1"
     inkscape:current-layer="g841" />
  <g
     inkscape:groupmode="layer"
     inkscape:label="Image"
     id="g841">
    <path
       style="fill:none;stroke:#1ba8f0;stroke-width:1.0015748;stroke-linecap:round;stroke-linejoin:round;stroke-opacity:1;stroke-miterlimit:4;stroke-dasharray:none"
       d="m 6.1897106,32.315113 c 0,0 -2.170418,-6.752412 4.9839224,-12.861737 0,0 2.733119,-9.5659162 6.350483,-10.3697747 3.617363,-0.8038585 7.636656,0.1607717 7.636656,0.1607717 0,0 4.662379,-1.7684888 6.350482,-0.4019293 1.688103,1.3665593 5.787781,4.4212223 6.430868,10.1286173"
       id="path845" />
    <path
       style="fill:none;stroke:#1ba8f0;stroke-width:1px;stroke-linecap:round;stroke-linejoin:miter;stroke-opacity:1"
       d="m 37.942122,18.971061 c 0,0 6.028939,1.205788 5.385852,14.389068"
       id="path847" />
    <path
       style="fill:none;stroke:#1ba8f0;stroke-width:1px;stroke-linecap:round;stroke-linejoin:round;stroke-opacity:1"
       d="M 11.173633,19.453376 5.7877814,13.022508 c 0,0 -1.8488746,-5.948553 0.4019292,-9.244373 C 8.4405145,0.48231511 14.14791,1.7684887 14.14791,1.7684887 l 4.180064,6.9935692"
       id="path851"
       sodipodi:nodetypes="ccscc" />
    <path
       style="fill:none;stroke:#1ba8f0;stroke-width:1px;stroke-linecap:round;stroke-linejoin:round;stroke-opacity:1"
       d="m 37.942122,18.971061 c 0,0 5.868167,-3.778135 6.672026,-6.189711 0.803858,-2.411575 1.205788,-4.9035365 0.08039,-7.5562696 -1.125402,-2.6527331 -3.778135,-3.9389068 -3.778135,-3.9389068 0,0 -2.652733,-0.80385849 -4.581994,0.1607717 -1.92926,0.9646303 -4.581993,7.4758843 -4.581993,7.4758843"
       id="path853" />
    <path
       style="fill:none;stroke:#1ba8f0;stroke-width:1px;stroke-linecap:round;stroke-linejoin:round;stroke-opacity:1"
       d="m 1.1254019,34.726688 c 0,0 1.6881029,2.411576 10.4501611,2.090032"
       id="path855" />
    <path
       style="fill:none;stroke:#1ba8f0;stroke-width:1px;stroke-linecap:round;stroke-linejoin:round;stroke-opacity:1"
       d="m 1.607717,41.237942 c 10.450161,-0.803858 10.128617,-1.205788 10.128617,-1.205788 0,0 0.562701,4.019293 3.858521,2.733119"
       id="path857" />
    <path
       style="fill:none;stroke:#1ba8f0;stroke-width:1px;stroke-linecap:butt;stroke-linejoin:round;stroke-opacity:1"
       d="m 37.78135,36.977492 c 0,0 6.672026,0.884244 10.048232,-2.411576"
       id="path861" />
    <path
       style="fill:none;stroke:#1ba8f0;stroke-width:1px;stroke-linecap:butt;stroke-linejoin:round;stroke-opacity:1"
       d="m 48.07074,41.07717 c 0,0 -6.832798,0.321544 -10.128618,-0.96463 0,0 -0.96463,3.135048 -4.581994,3.376206"
       id="path863"
       sodipodi:nodetypes="ccc" />
    <path
       style="fill:none;stroke:#1ba8f0;stroke-width:1px;stroke-linecap:round;stroke-linejoin:round;stroke-opacity:1"
       d="m 14.389068,36.575563 c 0,0 0,8.601286 8.5209,12.299035"
       id="path865" />
    <path
       style="fill:none;stroke:#1ba8f0;stroke-width:0.959704px;stroke-linecap:round;stroke-linejoin:round;stroke-opacity:1"
       d="m 35.179232,36.856914 c 0,0 0,8.279743 -7.848041,11.977492"
       id="path865-5"
       sodipodi:nodetypes="cc" />
    <path
       style="fill:none;stroke:#1ba8f0;stroke-width:1px;stroke-linecap:round;stroke-linejoin:round;stroke-opacity:1"
       d="m 22.909968,48.874598 4.421223,-0.04019"
       id="path887"
       sodipodi:nodetypes="cc" />
    <circle
       style="fill:#1ba8f0;stroke:#1ba8f0;stroke-width:1.00157;stroke-linecap:round;stroke-linejoin:round;stroke-miterlimit:4;stroke-dasharray:none;stroke-opacity:1"
       id="path889"
       cx="19.051447"
       cy="24.678457"
       r="1.5273312" />
    <ellipse
       style="fill:#1ba8f0;stroke:#1ba8f0;stroke-width:1.00157;stroke-linecap:round;stroke-linejoin:round;stroke-miterlimit:4;stroke-dasharray:none;stroke-opacity:1"
       id="path891"
       cx="30.988747"
       cy="24.839228"
       rx="1.4871383"
       ry="1.5273312" />
    <ellipse
       style="fill:#1ba8f0;stroke:#1ba8f0;stroke-width:1.00157;stroke-linecap:round;stroke-linejoin:round;stroke-miterlimit:4;stroke-dasharray:none;stroke-opacity:1"
       id="path893"
       cx="25.040194"
       cy="43.609325"
       rx="3.4967844"
       ry="1.1655948" />
  </g>
</svg>
